# xmcd CD database file
#
# Track frame offsets:
#	150
#	12367
#	23528
#	37643
#	50448
#	68166
#	80243
#	100929
#	116275
#	127879
#	144009
#	163050
#
# Disc length: 2338 seconds
#
# Revision: 2
# Processed by: cddbd v1.5.2PL0 Copyright (c) Steve Scherf et al.
# Submitted via: CDex 1.70beta2
#
DISCID=8909200c
DTITLE=Rolando Boldrin - Regional
DYEAR=2004
DGENRE=Caipira
TTITLE0=Ganga Bruta
TTITLE1=Meu Caboclo
TTITLE2=Êta País da América
TTITLE3=Novo Amanhecer
TTITLE4=Êta Mundo
TTITLE5=Seresta
TTITLE6=Dona Divergência
TTITLE7=Cevando o Amargo
TTITLE8=Doce de Cidra
TTITLE9=Tema para Juliana
TTITLE10=Ventania
TTITLE11=Terno de Missa
EXTD=YEAR: 2004
EXTT0=
EXTT1=
EXTT2=
EXTT3=
EXTT4=
EXTT5=
EXTT6=
EXTT7=
EXTT8=
EXTT9=
EXTT10=
EXTT11=
PLAYORDER=
